<?xml version="1.0" encoding="UTF-8"?> <svg xmlns="http://www.w3.org/2000/svg" xmlns:xlink="http://www.w3.org/1999/xlink" viewBox="0 0 371.07 268.26"><defs><style>.cls-1{fill:#1e1041;}.cls-2{fill:url(#linear-gradient);}</style><linearGradient id="linear-gradient" x1="195.28" y1="150.84" x2="195.28" y2="-1.87" gradientUnits="userSpaceOnUse"><stop offset="0.06" stop-color="#322398"></stop><stop offset="0.16" stop-color="#512da4"></stop><stop offset="0.39" stop-color="#9f45c3"></stop><stop offset="0.59" stop-color="#e75ce0"></stop><stop offset="0.65" stop-color="#e966d6"></stop><stop offset="0.76" stop-color="#ef81bb"></stop><stop offset="0.91" stop-color="#f8ac8f"></stop><stop offset="1" stop-color="#ffcc6e"></stop></linearGradient></defs><title>Asset 1</title><g id="Layer_2" data-name="Layer 2"><g id="Layer_1-2" data-name="Layer 1"><path class="cls-1" d="M38.65,198l-.08-.23-.23-.06a23.81,23.81,0,0,0-6.16-.65,25.85,25.85,0,0,0-6.37.65l-.24.06L0,265.71l.4.18a16.6,16.6,0,0,0,6.86,1.21,31.47,31.47,0,0,0,5.49-.44l.27,0,5.81-16.27H44.9l6,16.26.24.05a26.54,26.54,0,0,0,5.08.44,21.83,21.83,0,0,0,7.69-1.2l.44-.16Zm-6.9,15.84,1.48,4.83,7.61,20.58h-18l7.42-20.6Z"></path><path class="cls-1" d="M116.18,196a40.39,40.39,0,0,0-6.11-.54,36.31,36.31,0,0,0-6,.54l-.39.06v19.56A29.17,29.17,0,0,0,94,214.23c-16.11,0-27.81,11.47-27.81,27.28,0,16.5,10.82,26.75,28.24,26.75,7.56,0,16.18-2,22-5l.24-.13v-67Zm-12.51,31.77v27.62a25.46,25.46,0,0,1-9.5,1.45c-9.06,0-14.91-6.1-14.91-15.54,0-9.16,6.21-15.55,15.12-15.55C97.32,225.75,100.7,226,103.67,227.77Z"></path><path class="cls-1" d="M175.1,196a40.52,40.52,0,0,0-6.12-.54,36.4,36.4,0,0,0-6,.54l-.39.06v19.56a29.07,29.07,0,0,0-9.71-1.39c-16.12,0-27.82,11.47-27.82,27.28,0,16.5,10.82,26.75,28.24,26.75,7.57,0,16.18-2,22-5l.25-.13v-67Zm-12.52,59.39a25.49,25.49,0,0,1-9.5,1.45c-9.06,0-14.91-6.1-14.91-15.54,0-9.16,6.22-15.55,15.12-15.55,2.94,0,6.33.25,9.29,2Z"></path><path class="cls-1" d="M195.39,208.89a8.09,8.09,0,1,0,0-16.18,8.09,8.09,0,1,0,0,16.18Z"></path><path class="cls-1" d="M195.39,215.18a29.24,29.24,0,0,0-6.13.54l-.37.08v50.79l.37.07a29.38,29.38,0,0,0,6.13.54,27,27,0,0,0,6-.54l.36-.08V215.8l-.36-.08A28.41,28.41,0,0,0,195.39,215.18Z"></path><path class="cls-1" d="M262,215.72a29.41,29.41,0,0,0-6.14-.54,30.17,30.17,0,0,0-6.14.54l-.37.08v39.07a25.68,25.68,0,0,1-9.82,1.76c-9.86,0-11.73-4.31-11.73-12.26V215.8l-.36-.08a28.41,28.41,0,0,0-6-.54,31.18,31.18,0,0,0-6.24.54l-.37.07v32.08c0,9.3,4,20.39,23.15,20.39a54.79,54.79,0,0,0,24.16-5.34l.26-.13v-47Z"></path><path class="cls-1" d="M321.6,216.15a31.27,31.27,0,0,0-7.76-1,35,35,0,0,0-4.83.32l-.31.05-.08.3c-3.46,14.76-7.48,27.47-11.95,37.77-.06.15-.12.28-.16.41h0l-.15-.4A241.43,241.43,0,0,1,284,215.85l-.07-.3-.31-.05a32.09,32.09,0,0,0-4.73-.32,39.5,39.5,0,0,0-8.38,1l-.45.11.11.45c5.25,20.51,11.16,35.38,19.77,49.74l.11.17.19,0a28.86,28.86,0,0,0,6,.54,26.56,26.56,0,0,0,5.82-.54l.2,0,.1-.18a188.7,188.7,0,0,0,19.56-49.74l.1-.43Z"></path><path class="cls-1" d="M347.6,214.12c-10.42,0-18.08,4.73-20.67,7.23l-.17.17,0,.23a10.67,10.67,0,0,0,5.77,8.09l.25.12.23-.17a23.75,23.75,0,0,1,13.72-4.36c7.6,0,11.62,3.18,11.62,9.19v2.21a37.77,37.77,0,0,0-11.94-1.72c-7.38-.05-13.61,2-17.42,5.76a14.36,14.36,0,0,0-4.25,10.6c0,6.27,2.94,16.79,22.62,16.79a57.3,57.3,0,0,0,23.42-5l.26-.12V235.36C371.07,221.66,362.74,214.12,347.6,214.12Zm.85,44c-6.71,0-10.56-2.62-10.56-7.18,0-5.22,5.17-6.32,9.5-6.32a29.67,29.67,0,0,1,11,1.86v10.17A34.71,34.71,0,0,1,348.45,258.12Z"></path><path class="cls-2" d="M194,41.12A9.66,9.66,0,1,0,204.86,52,9.68,9.68,0,0,0,194,41.12Zm80.35,69.49-59-99.19A23.28,23.28,0,0,0,203,1.3l-.43-.14L202,1l-.71-.21L201,.71c-.29-.08-.59-.14-.88-.21l-.17,0c-.32-.07-.63-.12-.95-.17l-.16,0c-.3-.05-.61-.09-.92-.12l-.23,0-.83-.07-.36,0-.69,0h-1l-.69,0-.36,0-.83.07-.23,0c-.31,0-.62.07-.92.12l-.16,0c-.32,0-.63.1-.95.17l-.17,0c-.29.07-.59.13-.88.21l-.29.07-.72.21-.55.17-.43.14a23.28,23.28,0,0,0-12.42,10.12l-59,99.19a23.33,23.33,0,0,0,40.14,23.77l31.53-53L176.29,61.89a22.18,22.18,0,0,1,7.76-30.3A21.47,21.47,0,0,1,188,29.76l.41-.14.51-.16.69-.19.27-.08.84-.19.16,0c.3-.07.6-.12.9-.17l.15,0c.29-.05.58-.08.88-.12l.21,0,.79-.07.34,0,.65,0h1l.66,0,.34,0,.79.07.21,0c.3,0,.59.07.88.12l.15,0c.3.05.6.1.9.17l.16,0,.84.19.27.08.68.19.52.16.41.14a21.47,21.47,0,0,1,3.93,1.83,22.18,22.18,0,0,1,7.76,30.3L202.7,81.35l31.53,53a23.33,23.33,0,0,0,40.14-23.77Z"></path></g></g></svg> 